<?xml version="1.0" encoding="utf-8"?>
<!-- Generator: Adobe Illustrator 26.3.1, SVG Export Plug-In . SVG Version: 6.00 Build 0)  -->
<svg version="1.1" id="Layer_1" xmlns="http://www.w3.org/2000/svg" xmlns:xlink="http://www.w3.org/1999/xlink" x="0px" y="0px"
	 viewBox="0 0 134 110" style="enable-background:new 0 0 134 110;" xml:space="preserve">
<style type="text/css">
	.st0{fill:#1C466C;}
	.st1{fill:#5EA8DA;}
	.st2{fill:#FFFFFF;}
	.st3{fill:#203A5C;}
	.st4{fill:none;stroke:#20FFC2;stroke-miterlimit:10;}
	.st5{fill:none;stroke:#203A5C;stroke-miterlimit:10;}
	.st6{fill:#3676DE;}
	.st7{fill:#15273B;}
	.st8{fill:#3775E0;}
</style>
<g>
	<polygon class="st2" points="32.75,108.78 1.7,55 32.75,1.22 101.25,1.22 132.3,55 101.25,108.78 	"/>
	<polygon class="st8" points="79.29,55 97.54,23.4 101.63,30.49 87.48,55 97.54,72.41 89.34,72.41 	"/>
	<polygon class="st1" points="54.71,55 36.46,86.6 32.37,79.5 46.52,55 36.46,37.59 44.66,37.59 	"/>
	<polygon class="st7" points="85.24,79.5 71.1,55 89.34,23.4 81.15,23.4 75.19,33.71 69.24,23.4 61.05,23.4 71.1,40.81 67,47.9 
		52.85,23.4 36.46,23.4 32.37,30.49 48.76,30.49 62.9,55 44.66,86.6 52.85,86.6 58.81,76.29 64.76,86.6 72.95,86.6 62.9,69.19 
		67,62.09 81.15,86.6 97.54,86.6 101.63,79.5 	"/>
</g>
</svg>
